
		<svg xmlns="http://www.w3.org/2000/svg" xmlns:xlink="http://www.w3.org/1999/xlink" version="1.1" width="3099.667774086379" height="498.3388704318937">
			
			<g transform="scale(4.983388704318937) translate(10, 10)">
				<defs id="SvgjsDefs2479"><linearGradient id="SvgjsLinearGradient2483"><stop id="SvgjsStop2484" stop-color="#b88746" offset="0"/><stop id="SvgjsStop2485" stop-color="#fdf5a6" offset="1"/></linearGradient><linearGradient id="SvgjsLinearGradient2486"><stop id="SvgjsStop2487" stop-color="#b88746" offset="0"/><stop id="SvgjsStop2488" stop-color="#fdf5a6" offset="1"/></linearGradient></defs><g id="SvgjsG2480" featureKey="root" fill="#fff"/><g id="SvgjsG2481" featureKey="symbol1" fill="#fff" transform="matrix(1.1666666666666667,0,0,1.1666666666666667,-2.3333333333333335,2.6666666666666665)"><g xmlns="http://www.w3.org/2000/svg" class="st0" style="display: none;"><g class="st1" style="display: inline;"><rect x="2" y="2" class="st2" width="60" height="60" style="fill: none; stroke: url(#SvgjsLinearGradient2486); stroke-width: 0.1; stroke-miterlimit: 10;"/><line class="st2" x1="32" y1="2" x2="32" y2="62" style="fill: none; stroke: url(#SvgjsLinearGradient2486); stroke-width: 0.1; stroke-miterlimit: 10;"/><line class="st2" x1="62" y1="32" x2="2" y2="32" style="fill: none; stroke: url(#SvgjsLinearGradient2486); stroke-width: 0.1; stroke-miterlimit: 10;"/><line class="st2" x1="2" y1="2" x2="62" y2="62" style="fill: none; stroke: url(#SvgjsLinearGradient2486); stroke-width: 0.1; stroke-miterlimit: 10;"/><rect x="10" y="10" class="st2" width="44" height="44" style="fill: none; stroke: url(#SvgjsLinearGradient2486); stroke-width: 0.1; stroke-miterlimit: 10;"/><line class="st2" x1="62" y1="2" x2="2" y2="62" style="fill: none; stroke: url(#SvgjsLinearGradient2486); stroke-width: 0.1; stroke-miterlimit: 10;"/><line class="st2" x1="2" y1="32" x2="32" y2="2" style="fill: none; stroke: url(#SvgjsLinearGradient2486); stroke-width: 0.1; stroke-miterlimit: 10;"/><line class="st2" x1="32" y1="2" x2="62" y2="32" style="fill: none; stroke: url(#SvgjsLinearGradient2486); stroke-width: 0.1; stroke-miterlimit: 10;"/><line class="st2" x1="62" y1="32" x2="32" y2="62" style="fill: none; stroke: url(#SvgjsLinearGradient2486); stroke-width: 0.1; stroke-miterlimit: 10;"/><line class="st2" x1="32" y1="62" x2="2" y2="32" style="fill: none; stroke: url(#SvgjsLinearGradient2486); stroke-width: 0.1; stroke-miterlimit: 10;"/><circle class="st2" cx="32" cy="32" r="21" style="fill: none; stroke: url(#SvgjsLinearGradient2486); stroke-width: 0.1; stroke-miterlimit: 10;"/></g></g><path xmlns="http://www.w3.org/2000/svg" d="M50.7,39c0-0.1,0-0.1,0.1-0.2l11.2-2v-9.7l-11.2-2c0-0.1,0-0.1-0.1-0.2c-0.2-0.4-0.4-0.9-0.6-1.3l0,0l6.5-9.4l-6.8-6.8  l-9.4,6.5l0,0c-0.4-0.2-0.9-0.4-1.3-0.6c-0.1,0-0.1,0-0.2-0.1L36.8,2h-9.7l-2,11.2c-0.1,0-0.1,0-0.2,0.1c-0.4,0.2-0.9,0.4-1.3,0.6  l0,0l-9.4-6.5l-6.8,6.8l6.5,9.4l0,0c-0.2,0.4-0.4,0.9-0.6,1.3c0,0.1,0,0.1-0.1,0.2L2,27.2v9.7l11.2,2c0,0.1,0,0.1,0.1,0.2  c0.2,0.4,0.4,0.9,0.6,1.3l0,0l-6.5,9.4l6.8,6.8l9.4-6.5l0,0c0.4,0.2,0.9,0.4,1.3,0.6c0.1,0,0.1,0,0.2,0.1l2,11.2h9.7l2-11.2  c0.1,0,0.1,0,0.2-0.1c0.4-0.2,0.9-0.4,1.3-0.6l0,0l9.4,6.5l6.8-6.8L50,40.4l0,0C50.3,39.9,50.5,39.5,50.7,39z M51.4,27.3l8.6,1.6  v6.3l-8.6,1.6c0.4-1.5,0.6-3.1,0.6-4.7S51.8,28.8,51.4,27.3z M12.6,36.7L4,35.2v-6.3l8.6-1.6C12.2,28.8,12,30.4,12,32  C12,33.6,12.2,35.2,12.6,36.7z M28.8,4h6.3l1.6,8.6C35.2,12.2,33.6,12,32,12s-3.2,0.2-4.7,0.6L28.8,4z M10,14.4l4.5-4.5l7.2,5  c-2.7,1.7-5,4-6.7,6.7L10,14.4z M14.4,54L10,49.6l5-7.2c1.7,2.7,4,5,6.7,6.7L14.4,54z M35.2,60h-6.3l-1.6-8.6  c1.5,0.4,3.1,0.6,4.7,0.6s3.2-0.2,4.7-0.6L35.2,60z M32,50c-9.9,0-18-8.1-18-18s8.1-18,18-18s18,8.1,18,18S41.9,50,32,50z M54,49.6  L49.6,54l-7.2-5c2.7-1.7,5-4,6.7-6.7L54,49.6z M49.1,21.6c-1.7-2.7-4-5-6.7-6.7l7.2-5l4.5,4.5L49.1,21.6z"/><polygon xmlns="http://www.w3.org/2000/svg" points="26.3,40.7 17.6,32 26.3,23.3 27.7,24.7 20.4,32 27.7,39.3 "/><polygon xmlns="http://www.w3.org/2000/svg" points="37.7,40.7 36.3,39.3 43.6,32 36.3,24.7 37.7,23.3 46.4,32 "/><rect xmlns="http://www.w3.org/2000/svg" x="31" y="23.8" transform="matrix(-0.9702 -0.2423 0.2423 -0.9702 55.2577 70.8923)" width="2" height="16.5"/></g><g id="SvgjsG2482" featureKey="text1" fill="#fff" transform="matrix(4.026845740679177,0,0,4.026845740679177,87.82550249357038,-11.42281811151743)"><path d="M4.3 20 l0 -12.48 l-3.76 0 l0 -1.76 l9.32 0 l0 1.76 l-3.76 0 l0 12.48 l-1.8 0 z M19.66 14.379999999999999 c0.14 0.82 0.12 1.28 0.1 1.46 l-7.06 0 l0 0.04 c0.2 1.52 1.34 2.66 2.66 2.68 c0.82 -0.04 1.66 -0.38 2.24 -0.96 l1.44 0.86 c-0.36 0.4 -0.76 0.74 -1.22 1.02 c-0.7 0.42 -1.56 0.64 -2.42 0.68 c-1.2 0 -2.3 -0.5 -3.1 -1.4 c-0.72 -0.78 -1.16 -1.78 -1.24 -2.88 c-0.02 -0.14 -0.02 -0.28 -0.02 -0.42 c0 -0.36 0.04 -0.72 0.12 -1.08 c0.18 -0.84 0.58 -1.6 1.14 -2.22 c0.8 -0.88 1.92 -1.38 3.1 -1.38 c1.2 0 2.3 0.5 3.12 1.38 c0.56 0.62 0.98 1.38 1.14 2.22 z M12.84 14.4 l5.12 0 l-0.02 -0.04 c-0.4 -1.18 -1.42 -1.98 -2.54 -1.98 c-1.1 0 -2.12 0.8 -2.54 1.98 z M28.300000000000004 17.22 l1.4 1.02 c-0.16 0.2 -0.32 0.4 -0.5 0.58 c-0.9 0.9 -2.1 1.38 -3.38 1.38 s-2.5 -0.48 -3.4 -1.38 c-0.9 -0.92 -1.4 -2.12 -1.4 -3.4 s0.5 -2.48 1.4 -3.4 c0.9 -0.9 2.12 -1.38 3.4 -1.38 s2.48 0.48 3.38 1.38 c0.18 0.18 0.34 0.36 0.48 0.56 l-1.38 1.02 c-0.56 -0.76 -1.46 -1.28 -2.48 -1.28 c-1.7 0 -3.08 1.4 -3.08 3.1 s1.38 3.1 3.08 3.1 c1.02 0 1.92 -0.52 2.48 -1.3 z M35.86 14.16 l4.24 5.84 l-2.18 0 l-3.36 -4.64 l-1.58 1.48 l0 3.16 l-1.72 0 l0 -14.68 l1.72 0 l0 9.22 l3.98 -3.7 l2.46 0 z M45.040000000000006 20 c-1.68 0 -3.04 -1.34 -3.04 -3.04 l0 -4.48 l-1.36 0 l0 -1.64 l1.36 0 l0 -3.54 l1.72 0 l0 3.54 l2.82 0 l0 1.64 l-2.82 0 l0 4.44 c0 0.74 0.64 1.44 1.36 1.44 l1.54 0 l0.44 1.64 l-2.02 0 z M56.24000000000001 12.02 c0.92 0.92 1.42 2.12 1.42 3.4 s-0.5 2.48 -1.42 3.4 c-0.9 0.9 -2.1 1.4 -3.38 1.4 s-2.48 -0.5 -3.4 -1.4 c-0.9 -0.92 -1.4 -2.12 -1.4 -3.4 s0.5 -2.48 1.4 -3.4 c0.92 -0.9 2.12 -1.38 3.4 -1.38 s2.48 0.48 3.38 1.38 z M52.86000000000001 18.5 c1.7 0 3.08 -1.38 3.08 -3.08 s-1.38 -3.06 -3.08 -3.06 s-3.08 1.36 -3.08 3.06 s1.38 3.08 3.08 3.08 z M66.96000000000001 11.94 c0.82 0.84 1.28 1.94 1.28 3.14 l0 4.92 l-1.72 0 l0 -4.92 c0 -1.5 -1.2 -2.74 -2.7 -2.74 c-1.48 0 -2.7 1.24 -2.7 2.74 l0 4.92 l-1.72 0 l0 -9.16 l1.72 0 l0 0.88 c0.78 -0.6 1.72 -1.06 2.7 -1.06 c1.18 0 2.3 0.44 3.14 1.28 z M78.42000000000002 14.379999999999999 c0.14 0.82 0.12 1.28 0.1 1.46 l-7.06 0 l0 0.04 c0.2 1.52 1.34 2.66 2.66 2.68 c0.82 -0.04 1.66 -0.38 2.24 -0.96 l1.44 0.86 c-0.36 0.4 -0.76 0.74 -1.22 1.02 c-0.7 0.42 -1.56 0.64 -2.42 0.68 c-1.2 0 -2.3 -0.5 -3.1 -1.4 c-0.72 -0.78 -1.16 -1.78 -1.24 -2.88 c-0.02 -0.14 -0.02 -0.28 -0.02 -0.42 c0 -0.36 0.04 -0.72 0.12 -1.08 c0.18 -0.84 0.58 -1.6 1.14 -2.22 c0.8 -0.88 1.92 -1.38 3.1 -1.38 c1.2 0 2.3 0.5 3.12 1.38 c0.56 0.62 0.98 1.38 1.14 2.22 z M71.60000000000001 14.4 l5.12 0 l-0.02 -0.04 c-0.4 -1.18 -1.42 -1.98 -2.54 -1.98 c-1.1 0 -2.12 0.8 -2.54 1.98 z M83.88000000000001 20 c-1.68 0 -3.04 -1.34 -3.04 -3.04 l0 -4.48 l-1.36 0 l0 -1.64 l1.36 0 l0 -3.54 l1.72 0 l0 3.54 l2.82 0 l0 1.64 l-2.82 0 l0 4.44 c0 0.74 0.64 1.44 1.36 1.44 l1.54 0 l0.44 1.64 l-2.02 0 z M88.06 17.72 c0.62 0 1.12 0.52 1.12 1.14 s-0.5 1.14 -1.12 1.14 c-0.64 0 -1.14 -0.52 -1.14 -1.14 s0.5 -1.14 1.14 -1.14 z M97.80000000000001 17.22 l1.4 1.02 c-0.16 0.2 -0.32 0.4 -0.5 0.58 c-0.9 0.9 -2.1 1.38 -3.38 1.38 s-2.5 -0.48 -3.4 -1.38 c-0.9 -0.92 -1.4 -2.12 -1.4 -3.4 s0.5 -2.48 1.4 -3.4 c0.9 -0.9 2.12 -1.38 3.4 -1.38 s2.48 0.48 3.38 1.38 c0.18 0.18 0.34 0.36 0.48 0.56 l-1.38 1.02 c-0.56 -0.76 -1.46 -1.28 -2.48 -1.28 c-1.7 0 -3.08 1.4 -3.08 3.1 s1.38 3.1 3.08 3.1 c1.02 0 1.92 -0.52 2.48 -1.3 z M108.68 12.02 c0.92 0.92 1.42 2.12 1.42 3.4 s-0.5 2.48 -1.42 3.4 c-0.9 0.9 -2.1 1.4 -3.38 1.4 s-2.48 -0.5 -3.4 -1.4 c-0.9 -0.92 -1.4 -2.12 -1.4 -3.4 s0.5 -2.48 1.4 -3.4 c0.92 -0.9 2.12 -1.38 3.4 -1.38 s2.48 0.48 3.38 1.38 z M105.3 18.5 c1.7 0 3.08 -1.38 3.08 -3.08 s-1.38 -3.06 -3.08 -3.06 s-3.08 1.36 -3.08 3.06 s1.38 3.08 3.08 3.08 z M126.4 11.94 c0.84 0.84 1.3 1.94 1.3 3.14 l0 4.92 l-1.72 0 l0 -4.92 c0 -1.5 -1.22 -2.74 -2.7 -2.74 c-1.5 0 -2.72 1.24 -2.72 2.74 l0 4.92 l-1.72 0 l0 -4.92 c0 -1.5 -1.2 -2.74 -2.7 -2.74 c-1.48 0 -2.7 1.24 -2.7 2.74 l0 4.92 l-1.72 0 l0 -9.16 l1.72 0 l0 0.88 c0.78 -0.6 1.72 -1.06 2.7 -1.06 c1.18 0 2.3 0.52 3.14 1.36 c0.16 0.16 0.3 0.32 0.42 0.5 c0.14 -0.18 0.28 -0.34 0.44 -0.5 c0.84 -0.84 1.96 -1.36 3.14 -1.36 s2.28 0.44 3.12 1.28 z"/></g>
			</g>
		</svg>
	